# Blender v2.76 (sub 0) OBJ File: 'exteriors.blend'
# www.blender.org
o bigHouse_Cube.035
v -1.718002 -0.050538 -1.125000
v -1.718002 1.449462 -1.125000
v 0.531998 1.449462 -1.125000
v -1.718002 -0.050538 1.125000
v -1.718002 1.449462 1.125000
v 0.531998 1.449462 1.125000
v -1.980216 1.449462 -1.387214
v 0.794212 1.449462 -1.387214
v 0.794212 1.449462 1.387214
v -1.980215 1.449462 1.387214
v -0.593002 2.742286 0.000000
v -1.043002 -0.050538 1.012500
v -1.043002 1.074462 1.012500
v -0.143002 -0.050538 1.012500
v -0.143002 1.074462 1.012500
v -1.043002 -0.050538 1.237500
v -1.043002 1.074462 1.237500
v -0.143002 -0.050538 1.237500
v -0.143002 1.074462 1.237500
v -0.080161 1.790400 0.250000
v -0.080161 2.507458 0.250000
v -0.080161 1.790400 -0.250000
v -0.080161 2.507458 -0.250000
v 0.419839 1.790400 0.250000
v 0.419839 2.507458 0.250000
v 0.419839 1.790400 -0.250000
v 0.419839 2.507458 -0.250000
v -0.185805 2.507458 0.355644
v -0.185805 2.507458 -0.355644
v 0.525482 2.507458 -0.355644
v 0.525482 2.507458 0.355644
v -0.185805 2.700827 0.355644
v -0.185805 2.700827 -0.355644
v 0.525482 2.700827 -0.355644
v 0.525482 2.700827 0.355644
v -0.009066 2.700827 0.178905
v -0.009066 2.700827 -0.178905
v 0.348743 2.700827 -0.178905
v 0.348743 2.700827 0.178905
v -0.009066 2.249570 0.178905
v -0.009066 2.249570 -0.178905
v 0.348743 2.249570 -0.178905
v 0.348743 2.249570 0.178905
v 0.531998 0.923146 -1.125000
v 0.531998 0.923146 1.125000
v 1.779425 0.923146 -1.125000
v 1.779425 -0.050538 -1.125000
v 1.779425 0.923146 1.125000
v 1.779425 -0.050538 1.125000
v 0.530269 0.923146 1.268520
v 0.530269 0.923146 -1.268520
v 1.959264 0.923146 1.268520
v 1.959264 0.923146 -1.268520
v 1.155711 1.678132 0.000000
v 0.971171 0.289034 1.073813
v 0.971171 0.684195 1.073813
v 1.380664 0.289034 1.073813
v 1.380664 0.684195 1.073813
v 0.971171 0.289034 1.176187
v 0.971171 0.684195 1.176187
v 1.380664 0.289034 1.176187
v 1.380664 0.684195 1.176187
v 1.016227 0.332513 1.073813
v 1.016227 0.640716 1.073813
v 1.335608 0.640716 1.073813
v 1.335608 0.332513 1.073813
v 1.335608 0.640716 1.176187
v 1.335608 0.332513 1.176187
v 1.016227 0.640716 1.176187
v 1.016227 0.332513 1.176187
v 1.016227 0.332513 1.125000
v 1.016227 0.640716 1.125000
v 1.335608 0.640716 1.125000
v 1.335608 0.332513 1.125000
v 1.335608 0.640716 1.125000
v 1.335608 0.332513 1.125000
v 1.016227 0.640716 1.125000
v 1.016227 0.332513 1.125000
v 1.769126 0.289034 -0.283906
v 1.769126 0.684195 -0.283906
v 1.769126 0.289034 -0.693399
v 1.769126 0.684195 -0.693399
v 1.871499 0.289034 -0.283906
v 1.871499 0.684195 -0.283906
v 1.871499 0.289034 -0.693399
v 1.871499 0.684195 -0.693399
v 1.769126 0.332513 -0.328962
v 1.769126 0.640716 -0.328962
v 1.769126 0.640716 -0.648343
v 1.769126 0.332513 -0.648343
v 1.871499 0.640716 -0.648343
v 1.871499 0.332513 -0.648343
v 1.871499 0.640716 -0.328962
v 1.871499 0.332513 -0.328962
v 1.820313 0.332513 -0.328962
v 1.820313 0.640716 -0.328962
v 1.820313 0.640716 -0.648343
v 1.820313 0.332513 -0.648343
v 1.820313 0.640716 -0.648343
v 1.820313 0.332513 -0.648343
v 1.820313 0.640716 -0.328962
v 1.820313 0.332513 -0.328962
v 1.769126 0.289034 0.839792
v 1.769126 0.684195 0.839792
v 1.769126 0.289034 0.430299
v 1.769126 0.684195 0.430299
v 1.871499 0.289034 0.839792
v 1.871499 0.684195 0.839792
v 1.871499 0.289034 0.430299
v 1.871499 0.684195 0.430299
v 1.769126 0.332513 0.794736
v 1.769126 0.640716 0.794736
v 1.769126 0.640716 0.475355
v 1.769126 0.332513 0.475355
v 1.871499 0.640716 0.475355
v 1.871499 0.332513 0.475355
v 1.871499 0.640716 0.794736
v 1.871499 0.332513 0.794736
v 1.820313 0.332513 0.794736
v 1.820313 0.640716 0.794736
v 1.820313 0.640716 0.475355
v 1.820313 0.332513 0.475355
v 1.820313 0.640716 0.475355
v 1.820313 0.332513 0.475355
v 1.820313 0.640716 0.794736
v 1.820313 0.332513 0.794736
v -1.709873 0.689888 0.386356
v -1.709873 1.085050 0.386356
v -1.709873 0.689888 0.795849
v -1.709873 1.085050 0.795849
v -1.812246 0.689888 0.386356
v -1.812246 1.085050 0.386356
v -1.812246 0.689888 0.795849
v -1.812246 1.085050 0.795849
v -1.709873 0.733367 0.431412
v -1.709873 1.041571 0.431412
v -1.709873 1.041571 0.750793
v -1.709873 0.733367 0.750793
v -1.812246 1.041571 0.750793
v -1.812246 0.733367 0.750793
v -1.812246 1.041571 0.431412
v -1.812246 0.733367 0.431412
v -1.761060 0.733367 0.431412
v -1.761060 1.041571 0.431412
v -1.761060 1.041571 0.750793
v -1.761060 0.733367 0.750793
v -1.761060 1.041571 0.750793
v -1.761060 0.733367 0.750793
v -1.761060 1.041571 0.431412
v -1.761060 0.733367 0.431412
v -1.709873 0.689888 -0.737342
v -1.709873 1.085050 -0.737342
v -1.709873 0.689888 -0.327849
v -1.709873 1.085050 -0.327849
v -1.812246 0.689888 -0.737342
v -1.812246 1.085050 -0.737342
v -1.812246 0.689888 -0.327849
v -1.812246 1.085050 -0.327849
v -1.709873 0.733367 -0.692286
v -1.709873 1.041571 -0.692286
v -1.709873 1.041571 -0.372905
v -1.709873 0.733367 -0.372905
v -1.812246 1.041571 -0.372905
v -1.812246 0.733367 -0.372905
v -1.812246 1.041571 -0.692286
v -1.812246 0.733367 -0.692286
v -1.761060 0.733367 -0.692286
v -1.761060 1.041571 -0.692286
v -1.761060 1.041571 -0.372905
v -1.761060 0.733367 -0.372905
v -1.761060 1.041571 -0.372905
v -1.761060 0.733367 -0.372905
v -1.761060 1.041571 -0.692286
v -1.761060 0.733367 -0.692286
v -0.931696 0.689888 -1.106026
v -0.931696 1.085050 -1.106026
v -1.341189 0.689888 -1.106026
v -1.341189 1.085050 -1.106026
v -0.931696 0.689888 -1.208399
v -0.931696 1.085050 -1.208399
v -1.341189 0.689888 -1.208399
v -1.341189 1.085050 -1.208399
v -0.976752 0.733367 -1.106026
v -0.976752 1.041571 -1.106026
v -1.296133 1.041571 -1.106026
v -1.296133 0.733367 -1.106026
v -1.296133 1.041571 -1.208399
v -1.296133 0.733367 -1.208399
v -0.976752 1.041571 -1.208399
v -0.976752 0.733367 -1.208399
v -0.976752 0.733367 -1.157213
v -0.976752 1.041571 -1.157213
v -1.296133 1.041571 -1.157213
v -1.296133 0.733367 -1.157213
v -1.296133 1.041571 -1.157213
v -1.296133 0.733367 -1.157213
v -0.976752 1.041571 -1.157213
v -0.976752 0.733367 -1.157213
v 0.192002 0.689888 -1.106026
v 0.192002 1.085050 -1.106026
v -0.217491 0.689888 -1.106026
v -0.217491 1.085050 -1.106026
v 0.192002 0.689888 -1.208400
v 0.192002 1.085050 -1.208400
v -0.217491 0.689888 -1.208400
v -0.217491 1.085050 -1.208400
v 0.146946 0.733367 -1.106026
v 0.146946 1.041571 -1.106026
v -0.172435 1.041571 -1.106026
v -0.172435 0.733367 -1.106026
v -0.172435 1.041571 -1.208400
v -0.172435 0.733367 -1.208400
v 0.146946 1.041571 -1.208400
v 0.146946 0.733367 -1.208400
v 0.146946 0.733367 -1.157213
v 0.146946 1.041571 -1.157213
v -0.172435 1.041571 -1.157213
v -0.172435 0.733367 -1.157213
v -0.172435 1.041571 -1.157213
v -0.172435 0.733367 -1.157213
v 0.146946 1.041571 -1.157213
v 0.146946 0.733367 -1.157213
vt 0.244448 0.957756
vt 0.411838 0.956838
vt 0.520037 0.864669
vt 0.524044 0.840625
vt 0.518492 0.865128
vt 0.520037 0.856654
vt 0.520037 0.848639
vn 0.000000 1.000000 0.000000
vn -0.000000 -0.000000 -1.000000
vn 0.000000 -1.000000 -0.000000
vn 0.000000 0.731600 0.681800
vn -0.000000 0.731600 -0.681800
vn -0.681800 0.731600 0.000000
vn 0.681800 0.731600 -0.000000
vn 1.000000 0.000000 0.000000
vn 0.000000 0.000000 1.000000
vn -1.000000 0.000000 0.000000
vn 0.000000 0.859300 0.511400
vn -0.770100 0.637900 0.000000
vn 0.000000 0.859300 -0.511400
vn 0.684700 0.728800 0.000000
s off
f 32/1/1 35/1/1 39/1/1 36/1/1 37/1/1 33/1/1
f 44/2/2 46/2/2 47/2/2 1/2/2 2/2/2 3/2/2
f 5/3/3 6/3/3 9/3/3 10/3/3 7/3/3 2/3/3
f 34/1/1 33/1/1 37/1/1 38/1/1 39/1/1 35/1/1
f 10/3/4 9/3/4 11/3/4
f 8/3/5 7/3/5 11/3/5
f 7/3/6 10/3/6 11/3/6
f 9/3/7 8/3/7 11/3/7
f 15/4/8 19/4/8 18/4/8 14/4/8
f 19/4/9 17/4/9 16/4/9 18/4/9
f 17/4/10 13/4/10 12/4/10 16/4/10
f 12/2/3 14/2/3 18/2/3 16/2/3
f 15/5/1 13/5/1 17/5/1 19/5/1
f 21/1/10 23/1/10 22/1/10 20/1/10
f 23/1/2 27/1/2 26/1/2 22/1/2
f 27/1/8 25/1/8 24/1/8 26/1/8
f 25/1/9 21/1/9 20/1/9 24/1/9
f 5/2/10 2/2/10 1/2/10 4/2/10
f 30/1/2 29/1/2 33/1/2 34/1/2
f 1/2/3 47/2/3 49/2/3 4/2/3
f 21/1/3 25/1/3 31/1/3 28/1/3 29/1/3 23/1/3
f 31/1/8 30/1/8 34/1/8 35/1/8
f 29/1/10 28/1/10 32/1/10 33/1/10
f 28/1/9 31/1/9 35/1/9 32/1/9
f 36/1/2 39/1/2 43/1/2 40/1/2
f 27/1/3 23/1/3 29/1/3 30/1/3 31/1/3 25/1/3
f 43/1/1 42/1/1 41/1/1 40/1/1
f 38/1/9 37/1/9 41/1/9 42/1/9
f 39/1/10 38/1/10 42/1/10 43/1/10
f 37/1/8 36/1/8 40/1/8 41/1/8
f 3/2/8 6/2/8 45/2/8 44/2/8
f 6/2/9 5/2/9 4/2/9 49/2/9 48/2/9 45/2/9
f 46/2/8 48/2/8 49/2/8 47/2/8
f 45/6/3 48/6/3 52/6/3 50/6/3
f 6/3/3 3/3/3 2/3/3 7/3/3 8/3/3 9/3/3
f 46/6/3 44/2/3 45/2/3 50/2/3 51/6/3 53/6/3 52/6/3 48/6/3
f 50/6/11 52/6/11 54/6/11
f 51/6/12 50/6/12 54/6/12
f 53/6/13 51/6/13 54/6/13
f 52/6/14 53/6/14 54/6/14
f 58/4/8 62/4/8 61/4/8 57/4/8
f 59/7/9 61/7/9 68/7/9 70/7/9
f 60/4/10 56/4/10 55/4/10 59/4/10
f 55/7/3 57/7/3 61/7/3 59/7/3
f 58/5/1 56/5/1 60/5/1 62/5/1
f 79/7/3 81/7/3 85/7/3 83/7/3
f 63/4/8 64/4/8 72/4/8 71/4/8
f 66/7/1 63/7/1 71/7/1 74/7/1
f 62/5/9 60/5/9 69/5/9 67/5/9
f 61/4/9 62/4/9 67/4/9 68/4/9
f 84/4/9 80/4/9 79/4/9 83/4/9
f 83/7/8 85/7/8 92/7/8 94/7/8
f 82/4/2 86/4/2 85/4/2 81/4/2
f 60/4/9 59/4/9 70/4/9 69/4/9
f 87/4/2 88/4/2 96/4/2 95/4/2
f 82/5/1 80/5/1 84/5/1 86/5/1
f 64/5/3 65/5/3 73/5/3 72/5/3
f 69/4/8 70/4/8 78/4/8 77/4/8
f 68/4/10 67/4/10 75/4/10 76/4/10
f 65/4/10 66/4/10 74/4/10 73/4/10
f 70/7/1 68/7/1 76/7/1 78/7/1
f 67/5/3 69/5/3 77/5/3 75/5/3
f 90/7/1 87/7/1 95/7/1 98/7/1
f 86/5/8 84/5/8 93/5/8 91/5/8
f 85/4/8 86/4/8 91/4/8 92/4/8
f 84/4/8 83/4/8 94/4/8 93/4/8
f 88/5/3 89/5/3 97/5/3 96/5/3
f 93/4/2 94/4/2 102/4/2 101/4/2
f 92/4/9 91/4/9 99/4/9 100/4/9
f 89/4/9 90/4/9 98/4/9 97/4/9
f 94/7/1 92/7/1 100/7/1 102/7/1
f 91/5/3 93/5/3 101/5/3 99/5/3
f 103/7/3 105/7/3 109/7/3 107/7/3
f 108/4/9 104/4/9 103/4/9 107/4/9
f 107/7/8 109/7/8 116/7/8 118/7/8
f 106/4/2 110/4/2 109/4/2 105/4/2
f 111/4/2 112/4/2 120/4/2 119/4/2
f 106/5/1 104/5/1 108/5/1 110/5/1
f 114/7/1 111/7/1 119/7/1 122/7/1
f 110/5/8 108/5/8 117/5/8 115/5/8
f 109/4/8 110/4/8 115/4/8 116/4/8
f 108/4/8 107/4/8 118/4/8 117/4/8
f 112/5/3 113/5/3 121/5/3 120/5/3
f 117/4/2 118/4/2 126/4/2 125/4/2
f 116/4/9 115/4/9 123/4/9 124/4/9
f 113/4/9 114/4/9 122/4/9 121/4/9
f 118/7/1 116/7/1 124/7/1 126/7/1
f 115/5/3 117/5/3 125/5/3 123/5/3
f 127/7/3 129/7/3 133/7/3 131/7/3
f 132/4/2 128/4/2 127/4/2 131/4/2
f 131/7/10 133/7/10 140/7/10 142/7/10
f 130/4/9 134/4/9 133/4/9 129/4/9
f 135/4/9 136/4/9 144/4/9 143/4/9
f 130/5/1 128/5/1 132/5/1 134/5/1
f 138/7/1 135/7/1 143/7/1 146/7/1
f 134/5/10 132/5/10 141/5/10 139/5/10
f 133/4/10 134/4/10 139/4/10 140/4/10
f 132/4/10 131/4/10 142/4/10 141/4/10
f 136/5/3 137/5/3 145/5/3 144/5/3
f 141/4/9 142/4/9 150/4/9 149/4/9
f 140/4/2 139/4/2 147/4/2 148/4/2
f 137/4/2 138/4/2 146/4/2 145/4/2
f 142/7/1 140/7/1 148/7/1 150/7/1
f 139/5/3 141/5/3 149/5/3 147/5/3
f 151/7/3 153/7/3 157/7/3 155/7/3
f 156/4/2 152/4/2 151/4/2 155/4/2
f 155/7/10 157/7/10 164/7/10 166/7/10
f 154/4/9 158/4/9 157/4/9 153/4/9
f 159/4/9 160/4/9 168/4/9 167/4/9
f 154/5/1 152/5/1 156/5/1 158/5/1
f 162/7/1 159/7/1 167/7/1 170/7/1
f 158/5/10 156/5/10 165/5/10 163/5/10
f 157/4/10 158/4/10 163/4/10 164/4/10
f 156/4/10 155/4/10 166/4/10 165/4/10
f 160/5/3 161/5/3 169/5/3 168/5/3
f 165/4/9 166/4/9 174/4/9 173/4/9
f 164/4/2 163/4/2 171/4/2 172/4/2
f 161/4/2 162/4/2 170/4/2 169/4/2
f 166/7/1 164/7/1 172/7/1 174/7/1
f 163/5/3 165/5/3 173/5/3 171/5/3
f 175/7/3 177/7/3 181/7/3 179/7/3
f 180/4/8 176/4/8 175/4/8 179/4/8
f 179/7/2 181/7/2 188/7/2 190/7/2
f 178/4/10 182/4/10 181/4/10 177/4/10
f 183/4/10 184/4/10 192/4/10 191/4/10
f 178/5/1 176/5/1 180/5/1 182/5/1
f 186/7/1 183/7/1 191/7/1 194/7/1
f 182/5/2 180/5/2 189/5/2 187/5/2
f 181/4/2 182/4/2 187/4/2 188/4/2
f 180/4/2 179/4/2 190/4/2 189/4/2
f 184/5/3 185/5/3 193/5/3 192/5/3
f 189/4/10 190/4/10 198/4/10 197/4/10
f 188/4/8 187/4/8 195/4/8 196/4/8
f 185/4/8 186/4/8 194/4/8 193/4/8
f 190/7/1 188/7/1 196/7/1 198/7/1
f 187/5/3 189/5/3 197/5/3 195/5/3
f 199/7/3 201/7/3 205/7/3 203/7/3
f 204/4/8 200/4/8 199/4/8 203/4/8
f 203/7/2 205/7/2 212/7/2 214/7/2
f 202/4/10 206/4/10 205/4/10 201/4/10
f 207/4/10 208/4/10 216/4/10 215/4/10
f 202/5/1 200/5/1 204/5/1 206/5/1
f 210/7/1 207/7/1 215/7/1 218/7/1
f 206/5/2 204/5/2 213/5/2 211/5/2
f 205/4/2 206/4/2 211/4/2 212/4/2
f 204/4/2 203/4/2 214/4/2 213/4/2
f 208/5/3 209/5/3 217/5/3 216/5/3
f 213/4/10 214/4/10 222/4/10 221/4/10
f 212/4/8 211/4/8 219/4/8 220/4/8
f 209/4/8 210/4/8 218/4/8 217/4/8
f 214/7/1 212/7/1 220/7/1 222/7/1
f 211/5/3 213/5/3 221/5/3 219/5/3
