# Blender v2.76 (sub 0) OBJ File: 'Trees and vege.blend'
# www.blender.org
mtllib Grass.mtl
o Grass_Plane.038
v 2.607219 1.132555 4.846801
v 2.217597 1.011035 4.808677
v 2.450379 1.500063 5.003145
v 2.897338 1.912001 5.156584
v 2.428801 0.244479 4.490843
v 2.094552 0.202281 4.484982
v 2.093333 -0.742364 4.034896
v -1.381611 1.131089 5.734704
v -1.577220 1.010849 5.425201
v -1.602219 1.497913 5.709683
v -1.487650 1.908151 6.178637
v -1.233340 0.244884 5.394535
v -1.416234 0.202114 5.119628
v -1.126099 -0.742364 4.814337
v -4.628048 1.126815 2.610720
v -4.517239 1.007972 2.256974
v -4.747872 1.492432 2.423671
v -5.019436 1.903167 2.812804
v -4.282295 0.244201 2.510082
v -4.190597 0.201746 2.190116
v -3.803313 -0.742364 2.238792
v -5.251023 1.130311 -1.685637
v -5.003611 1.014719 -1.975919
v -5.291199 1.500943 -1.907504
v -5.700775 1.903973 -1.646397
v -4.896379 0.244587 -1.560881
v -4.684121 0.203039 -1.820360
v -4.345532 -0.742364 -1.421195
v -2.693522 1.132716 -4.987885
v -2.464699 1.008997 -4.731403
v -2.485664 1.495968 -5.011538
v -2.680346 1.909021 -5.448884
v -2.678302 0.245393 -4.633529
v -2.456875 0.201673 -4.406260
v -2.447761 -0.742364 -4.064517
v 3.052431 1.122231 -3.316265
v 2.772976 1.001412 -3.097160
v 3.058177 1.480576 -3.109465
v 3.482297 1.888446 -3.276663
v 2.763327 0.243880 -3.247750
v 2.522263 0.200744 -3.029322
v 2.364443 -0.742364 -2.912300
v 2.773985 0.823150 -5.308014
v 3.021545 0.717840 -5.033772
v 2.990947 1.159718 -5.336434
v 2.778517 1.526264 -5.759312
v 2.603542 0.018017 -4.938422
v 2.834110 -0.019830 -4.717389
v 2.390875 -0.901897 -4.370018
v 4.048992 1.334106 2.761227
v 4.068907 1.208984 3.177814
v 4.226995 1.776719 2.892123
v 4.321576 2.221580 2.358608
v 3.748765 0.296313 2.789371
v 3.770853 0.251096 3.138546
v 3.263435 -0.823370 2.660519
v -3.226324 1.316056 3.695844
v -3.042273 1.167372 3.314839
v -3.305104 1.725697 3.447160
v -3.649936 2.209156 3.828861
v -2.916000 0.296982 3.583439
v -2.775084 0.246815 3.241262
v -2.502360 -0.823369 3.178263
v -1.020557 1.494377 2.455783
v -1.478959 1.342401 2.628386
v -1.110012 1.958371 2.682091
v -0.517760 2.483139 2.644933
v -1.160184 0.350072 2.253315
v -1.540463 0.288753 2.402483
v -1.196546 -0.891739 1.978292
v -5.411859 0.983366 4.457507
v -5.073774 0.861881 4.410502
v -5.339192 1.337509 4.291260
v -5.804024 1.739863 4.241747
v -5.108459 0.110477 4.445049
v -4.803349 0.067720 4.372288
v -4.553123 -0.868808 4.137262
v 1.758243 1.267587 -1.243200
v 2.145547 1.149129 -1.115982
v 1.947147 1.671845 -1.358046
v 1.501134 2.092569 -1.625480
v 1.706770 0.310054 -0.991815
v 2.040878 0.266870 -0.897982
v 1.597148 -0.749415 -0.742362
v 4.960420 0.816947 -2.979573
v 4.635947 0.707489 -2.926741
v 4.898607 1.141447 -2.820449
v 5.329016 1.508575 -2.769382
v 4.644624 0.017719 -2.975698
v 4.350600 -0.021257 -2.899970
v 4.119202 -0.901896 -2.743359
v 3.503288 0.817744 5.662117
v 3.432387 0.707283 5.313513
v 3.340613 1.141960 5.591166
v 3.311122 1.511304 6.052832
v 3.510624 0.018020 5.376727
v 3.427278 -0.021160 5.072865
v 3.250823 -0.901897 4.838274
v 2.556269 1.272281 1.960301
v 2.434477 1.153248 2.354183
v 2.675307 1.681905 2.157856
v 2.930315 2.113063 1.712001
v 2.265462 0.310776 1.924050
v 2.166847 0.267149 2.261585
v 1.905474 -0.749416 1.848165
v -4.965770 0.685579 -5.534781
v -4.642060 0.582935 -5.516379
v -4.850410 0.999606 -5.712337
v -5.278711 1.351690 -5.918275
v -4.750116 -0.073362 -5.172291
v -4.455327 -0.109738 -5.160035
v -4.309244 -0.950120 -4.664849
v -2.761330 1.282211 -2.812454
v -3.174503 1.166690 -2.701662
v -2.853693 1.712414 -2.561136
v -2.291120 2.154334 -2.506083
v -2.786812 0.286263 -2.856527
v -3.129950 0.247241 -2.726680
v -2.638997 -0.823369 -2.565320
v -1.466119 1.558129 0.360059
v -0.998221 1.402207 0.293148
v -1.302950 2.057566 0.131996
v -1.889683 2.589255 0.050137
v -1.323503 0.375419 0.550471
v -0.906478 0.320905 0.466004
v -1.041278 -0.869942 0.600157
v 1.360216 1.484478 1.438902
v 0.892854 1.343369 1.546422
v 1.208936 1.970983 1.663263
v 1.795187 2.489426 1.690665
v 1.181996 0.348521 1.228927
v 0.778815 0.303902 1.348819
v 0.874115 -0.869942 1.063426
v 1.225395 1.488393 0.008063
v 1.020584 1.345787 0.440393
v 1.315323 1.973084 0.262662
v 1.703412 2.494017 -0.180330
v 0.963471 0.350095 0.011569
v 0.806923 0.308241 0.401967
v 0.689772 -0.869942 0.128581
v -1.875548 1.553154 -0.695709
v -1.639946 1.382139 -1.112288
v -1.943586 2.028040 -0.941792
v -2.372440 2.525446 -0.532752
v -1.622687 0.375760 -0.653547
v -1.424435 0.318894 -1.024049
v -1.301192 -0.869942 -0.599565
v -2.400569 1.480629 0.725066
v -2.867303 1.330480 0.571000
v -2.605576 1.946249 0.856040
v -2.117233 2.468597 1.194766
v -2.377660 0.349858 0.493167
v -2.764381 0.289976 0.379536
v -2.204890 -0.891739 0.343896
v -4.339811 1.311244 0.268909
v -4.518001 1.192818 0.661592
v -4.206129 1.747074 0.498428
v -3.817700 2.169522 0.093360
v -4.395462 0.294763 0.266539
v -4.508903 0.248673 0.616963
v -4.068771 -0.823369 0.346337
v -6.596068 0.989230 0.027002
v -6.262366 0.864000 0.200735
v -6.395801 1.341600 -0.059119
v -6.695776 1.746837 -0.383614
v -6.316786 0.112244 0.219911
v -5.995997 0.067520 0.351938
v -5.678487 -0.868808 0.348444
v -7.846450 0.686224 0.308678
v -7.623551 0.583287 0.066341
v -7.914964 1.000683 0.107046
v -8.347316 1.353086 0.313780
v -7.427963 -0.073301 0.369790
v -7.235170 -0.109681 0.146317
v -6.751629 -0.950120 0.349849
v 2.650825 1.269531 0.005148
v 2.876281 1.147383 0.345802
v 2.875436 1.665819 0.033376
v 2.684905 2.103033 -0.450281
v 2.444069 0.310349 0.181384
v 2.645842 0.267110 0.464055
v 2.172405 -0.749415 0.338167
v 4.650293 1.112036 0.217780
v 4.942643 1.010853 0.018353
v 4.680468 1.475435 -0.001901
v 4.202358 1.845562 0.127973
v 4.580619 0.242267 0.324106
v 4.809182 0.203673 0.134987
v 4.262208 -0.742364 0.335432
v 7.943263 0.610038 0.275939
v 7.819686 0.524044 0.552836
v 8.067086 0.881891 0.438841
v 8.364084 1.181404 0.147471
v 7.520059 -0.047381 0.274783
v 7.413822 -0.078982 0.522561
v 6.916826 -0.829264 0.331957
v 6.338152 0.769560 0.639407
v 5.925515 0.674308 0.472353
v 6.152063 1.086183 0.722470
v 6.484998 1.429428 1.036928
v 5.984677 0.005893 0.454358
v 5.608899 -0.026693 0.330626
v 5.391834 -0.901897 0.333953
v 0.325989 0.769881 -5.976068
v 0.155836 0.674760 -5.564941
v 0.409097 1.086733 -5.789061
v 0.723645 1.429917 -6.123302
v 0.129517 0.006047 -5.632495
v 0.002836 -0.027117 -5.264070
v -0.007772 -0.901896 -5.058589
v -0.043554 0.608962 -7.602158
v 0.233616 0.523359 -7.475492
v 0.120915 0.880361 -7.723460
v -0.169497 1.178748 -8.016847
v -0.051954 -0.047498 -7.178983
v 0.195596 -0.079037 -7.070840
v -0.007772 -0.829264 -6.583582
v -0.098025 1.111096 -4.295536
v -0.298664 1.009050 -4.587893
v -0.318140 1.473807 -4.326504
v -0.189186 1.844553 -3.845910
v -0.000698 0.242123 -4.231983
v -0.191324 0.203419 -4.463850
v -0.007772 -0.742364 -3.928962
v -0.313042 1.268326 -2.294506
v 0.027503 1.149127 -2.518344
v -0.285152 1.666607 -2.516657
v -0.770924 2.100571 -2.329539
v -0.144506 0.310166 -2.093359
v 0.137221 0.266975 -2.295822
v -0.007772 -0.749415 -1.839156
v -0.029530 0.687480 8.190134
v -0.270614 0.584045 7.969780
v -0.229576 1.002321 8.262572
v -0.022403 1.355843 8.702803
v 0.025426 -0.073168 7.770235
v -0.197349 -0.109623 7.579708
v -0.007771 -0.950120 7.084886
v -0.303614 0.990413 6.945416
v -0.129305 0.864447 6.598022
v -0.388484 1.341854 6.726152
v -0.715606 1.748238 7.044981
v -0.119354 0.112689 6.667833
v 0.012637 0.067632 6.343481
v -0.007771 -0.868808 6.011740
v -0.057681 1.284397 4.702075
v 0.334857 1.174796 4.883243
v 0.170561 1.714358 4.567843
v -0.235771 2.147679 4.175027
v -0.067187 0.283948 4.749710
v 0.281442 0.247092 4.858165
v -0.007772 -0.823370 4.402024
v 0.399828 1.482662 2.756747
v 0.247097 1.336400 3.227991
v 0.528639 1.949084 2.962826
v 0.867870 2.460377 2.474952
v 0.164800 0.350057 2.732515
v 0.049059 0.288975 3.117041
v -0.007772 -0.891739 2.538143
v -0.093649 1.537236 1.719376
v -0.506143 1.404899 1.481154
v -0.352247 2.045685 1.788666
v 0.056156 2.544040 2.217940
v -0.070405 0.375455 1.470712
v -0.446756 0.321454 1.274750
v -0.148975 -0.869942 1.187299
v 0.017114 1.486833 -1.031366
v 0.449411 1.346055 -0.823372
v 0.264816 1.972539 -1.120060
v -0.179572 2.489290 -1.508657
v 0.006447 0.351911 -0.772578
v 0.397133 0.303800 -0.611202
v 0.062831 -0.869942 -0.497726
vt 0.000031 0.666656
vt 0.092857 0.666656
vt 0.092857 0.999970
vt 0.000031 0.999970
vt 0.000031 0.333344
vt 0.092857 0.333344
vt 0.092857 0.000030
vn -0.030100 0.378800 -0.925000
vn -0.029400 0.377300 -0.925600
vn -0.030700 0.380100 -0.924400
vn -0.032500 0.396700 -0.917400
vn -0.034300 0.406600 -0.913000
vn -0.038400 0.429900 -0.902100
vn 0.729600 0.384100 -0.565800
vn 0.733800 0.367100 -0.571600
vn 0.725900 0.398300 -0.560700
vn 0.735400 0.371600 -0.566700
vn 0.734300 0.382500 -0.560800
vn 0.732000 0.402500 -0.549600
vn 0.907200 0.376200 0.188100
vn 0.913400 0.359500 0.190900
vn 0.901700 0.390500 0.185700
vn 0.912000 0.358900 0.198500
vn 0.908500 0.366100 0.201600
vn 0.901200 0.380400 0.207800
vn 0.755200 0.393200 0.524600
vn 0.757000 0.390300 0.524000
vn 0.753300 0.396000 0.525100
vn 0.742800 0.422900 0.519100
vn 0.737400 0.434100 0.517500
vn 0.717600 0.472900 0.511300
vn -0.627800 0.360700 0.689700
vn -0.645000 0.308100 0.699300
vn -0.614900 0.396200 0.681900
vn -0.659800 0.265100 0.703100
vn -0.664400 0.256900 0.701800
vn -0.669900 0.247000 0.700200
vn -0.658400 0.319900 -0.681300
vn -0.664000 0.220000 -0.714600
vn -0.650100 0.387600 -0.653600
vn -0.668200 0.111000 -0.735700
vn -0.671100 0.071500 -0.737900
vn -0.673400 0.021000 -0.739000
vn -0.584300 0.437200 0.683700
vn -0.581600 0.438500 0.685200
vn -0.586900 0.435900 0.682300
vn -0.564200 0.476600 0.674200
vn -0.559100 0.488500 0.669900
vn -0.540300 0.529200 0.654200
vn -0.939900 0.318100 0.124100
vn -0.945900 0.301600 0.119900
vn -0.932700 0.337000 0.128900
vn -0.936100 0.333400 0.112000
vn -0.936900 0.331200 0.112100
vn -0.916600 0.384900 0.107800
vn 0.890400 0.321000 0.322700
vn 0.901700 0.273900 0.334600
vn 0.879500 0.358800 0.312500
vn 0.910700 0.229100 0.343800
vn 0.912000 0.222800 0.344400
vn 0.914100 0.212600 0.345300
vn -0.393600 0.295500 -0.870500
vn -0.395400 0.251100 -0.883500
vn -0.390700 0.341600 -0.854800
vn -0.391700 0.210300 -0.895700
vn -0.391500 0.210300 -0.895800
vn -0.386200 0.210200 -0.898100
vn 0.229200 0.281500 0.931800
vn 0.206800 0.125200 0.970300
vn 0.239800 0.371800 0.896800
vn 0.196300 -0.031700 0.980000
vn 0.200200 -0.108300 0.973700
vn 0.203000 -0.187000 0.961200
vn -0.212900 0.320100 0.923200
vn -0.221300 0.289800 0.931200
vn -0.203100 0.354200 0.912800
vn -0.230900 0.252700 0.939600
vn -0.230900 0.252600 0.939600
vn -0.232500 0.245600 0.941100
vn -0.241900 0.302300 -0.922000
vn -0.228200 0.150800 -0.961900
vn -0.247200 0.388300 -0.887800
vn -0.223800 0.013000 -0.974500
vn -0.229400 -0.048500 -0.972100
vn -0.234200 -0.110200 -0.965900
vn 0.915600 0.300000 -0.267700
vn 0.952000 0.166600 -0.256700
vn 0.882600 0.383300 -0.272100
vn 0.968300 0.022000 -0.249000
vn 0.967300 -0.049300 -0.248800
vn 0.960700 -0.126600 -0.247200
vn -0.923000 0.333100 -0.192700
vn -0.927000 0.314900 -0.203600
vn -0.917900 0.353600 -0.180200
vn -0.924900 0.310500 -0.219600
vn -0.924400 0.311600 -0.220000
vn -0.917400 0.327700 -0.225700
vn 0.039700 0.474800 0.879200
vn 0.050600 0.463900 0.884400
vn 0.031200 0.483200 0.874900
vn 0.047700 0.475300 0.878500
vn 0.039700 0.489500 0.871100
vn 0.027300 0.511000 0.859100
vn -0.307200 0.289300 -0.906600
vn -0.310600 0.168900 -0.935400
vn -0.296300 0.433500 -0.851000
vn -0.314100 -0.116700 -0.942200
vn -0.314100 -0.115200 -0.942400
vn -0.311800 -0.279800 -0.908000
vn 0.211800 0.289000 0.933600
vn 0.209400 0.230100 0.950400
vn 0.213500 0.347200 0.913200
vn 0.207500 0.139300 0.968300
vn 0.207800 0.128500 0.969700
vn 0.208600 0.086100 0.974200
vn -0.280900 0.289900 -0.914900
vn -0.285400 0.251200 -0.924900
vn -0.275600 0.330600 -0.902600
vn -0.293700 0.209000 -0.932800
vn -0.294700 0.207800 -0.932700
vn -0.299600 0.202400 -0.932300
vn -0.892100 0.293000 -0.344000
vn -0.903300 0.248300 -0.349800
vn -0.878000 0.339900 -0.337000
vn -0.915900 0.191400 -0.353000
vn -0.916500 0.188700 -0.352600
vn -0.920400 0.172900 -0.350600
vn 0.860700 0.292300 0.416800
vn 0.872500 0.246900 0.421700
vn 0.847800 0.334600 0.411400
vn 0.876300 0.223800 0.426500
vn 0.875600 0.226200 0.426800
vn 0.870300 0.243200 0.428400
vn 0.231200 0.298900 -0.925800
vn 0.240500 0.247000 -0.938700
vn 0.220700 0.352900 -0.909300
vn 0.252500 0.176700 -0.951300
vn 0.252600 0.176400 -0.951400
vn 0.257200 0.150500 -0.954600
vn -0.897100 0.285200 -0.337300
vn -0.921900 0.164700 -0.350800
vn -0.848600 0.425700 -0.314100
vn -0.929500 -0.117500 -0.349700
vn -0.929100 -0.121500 -0.349400
vn -0.899900 -0.286400 -0.329000
vn -0.362600 0.303900 0.881000
vn -0.396200 0.148200 0.906200
vn -0.336100 0.399500 0.852900
vn -0.407500 -0.003400 0.913200
vn -0.401300 -0.070500 0.913200
vn -0.393300 -0.136700 0.909200
vn 0.707600 0.477600 0.520800
vn 0.719500 0.464000 0.516700
vn 0.698200 0.488000 0.523900
vn 0.714200 0.477000 0.512200
vn 0.704000 0.493300 0.511000
vn 0.687300 0.518600 0.508500
vn -0.728800 0.329800 0.600000
vn -0.743600 0.302400 0.596400
vn -0.711400 0.360200 0.603400
vn -0.758700 0.277900 0.589100
vn -0.758800 0.278000 0.589100
vn -0.760100 0.281500 0.585600
vn 0.583700 0.257500 0.770100
vn 0.595500 0.166000 0.786000
vn 0.555000 0.396100 0.731500
vn 0.609000 -0.082200 0.788900
vn 0.608500 -0.059100 0.791300
vn 0.607200 -0.187500 0.772100
vn -0.813800 0.527100 -0.244700
vn -0.811500 0.533300 -0.238800
vn -0.815800 0.521400 -0.250100
vn -0.796200 0.553900 -0.243300
vn -0.789700 0.561200 -0.247700
vn -0.774000 0.578200 -0.258100
vn 0.324800 0.309700 -0.893700
vn 0.335600 0.147300 -0.930400
vn 0.313100 0.408900 -0.857200
vn 0.332500 0.014100 -0.943000
vn 0.325800 -0.033800 -0.944800
vn 0.318100 -0.082500 -0.944500
vn -0.890600 0.315000 -0.327900
vn -0.926300 0.160400 -0.341000
vn -0.855700 0.410400 -0.315100
vn -0.939600 0.030300 -0.340800
vn -0.941800 -0.016900 -0.335800
vn -0.941800 -0.066000 -0.329800
vn -0.249200 0.525600 0.813400
vn -0.244500 0.533200 0.809900
vn -0.253500 0.518600 0.816600
vn -0.250200 0.553300 0.794500
vn -0.254500 0.559500 0.788800
vn -0.265000 0.574700 0.774300
vn 0.770300 0.257500 -0.583400
vn 0.786600 0.163400 -0.595400
vn 0.731600 0.396600 -0.554500
vn 0.789900 -0.084700 -0.607300
vn 0.792100 -0.063700 -0.607100
vn 0.773600 -0.191500 -0.604000
vn 0.595600 0.325000 0.734600
vn 0.593700 0.295200 0.748600
vn 0.596900 0.358500 0.717700
vn 0.590300 0.262400 0.763300
vn 0.590300 0.262300 0.763300
vn 0.589500 0.259600 0.764900
vn 0.519600 0.480100 -0.706800
vn 0.514700 0.463700 -0.721100
vn 0.523100 0.492400 -0.695600
vn 0.509200 0.475800 -0.717100
vn 0.507500 0.493400 -0.706400
vn 0.504600 0.519700 -0.689400
vn 0.885500 0.306400 0.349300
vn 0.910200 0.150300 0.386000
vn 0.856000 0.406200 0.319700
vn 0.915600 -0.012000 0.401900
vn 0.913600 -0.085200 0.397500
vn 0.906700 -0.158300 0.391000
vn -0.338800 0.283300 0.897200
vn -0.351700 0.163600 0.921700
vn -0.314700 0.431100 0.845700
vn -0.341900 -0.132200 0.930400
vn -0.342500 -0.128000 0.930800
vn -0.312100 -0.299800 0.901500
vn -0.925200 0.298500 -0.234300
vn -0.937700 0.249700 -0.241600
vn -0.908900 0.350700 -0.225700
vn -0.948800 0.189100 -0.252900
vn -0.948800 0.189000 -0.253000
vn -0.950400 0.172600 -0.258700
vn 0.432500 0.283200 -0.856000
vn 0.435400 0.239500 -0.867800
vn 0.428100 0.332300 -0.840400
vn 0.436500 0.185500 -0.880400
vn 0.436300 0.183500 -0.880900
vn 0.435100 0.173600 -0.883500
vn -0.351000 0.290700 0.890100
vn -0.356300 0.248300 0.900800
vn -0.344600 0.335800 0.876600
vn -0.358100 0.199600 0.912100
vn -0.357700 0.198300 0.912500
vn -0.354800 0.189600 0.915500
usemtl None.002
s 1
f 1/1/1 2/2/2 3/3/3 4/4/3
f 5/5/4 6/6/5 2/2/2 1/1/1
f 7/7/6 6/6/5 5/5/4
s 2
f 8/1/7 9/2/8 10/3/9 11/4/9
f 12/5/10 13/6/11 9/2/8 8/1/7
f 14/7/12 13/6/11 12/5/10
s 3
f 15/1/13 16/2/14 17/3/15 18/4/15
f 19/5/16 20/6/17 16/2/14 15/1/13
f 21/7/18 20/6/17 19/5/16
s 4
f 22/1/19 23/2/20 24/3/21 25/4/21
f 26/5/22 27/6/23 23/2/20 22/1/19
f 28/7/24 27/6/23 26/5/22
s 5
f 29/1/25 30/2/26 31/3/27 32/4/27
f 33/5/28 34/6/29 30/2/26 29/1/25
f 35/7/30 34/6/29 33/5/28
s 6
f 36/1/31 37/2/32 38/3/33 39/4/33
f 40/5/34 41/6/35 37/2/32 36/1/31
f 42/7/36 41/6/35 40/5/34
s 7
f 43/1/37 44/2/38 45/3/39 46/4/39
f 47/5/40 48/6/41 44/2/38 43/1/37
f 49/7/42 48/6/41 47/5/40
s 8
f 50/1/43 51/2/44 52/3/45 53/4/45
f 54/5/46 55/6/47 51/2/44 50/1/43
f 56/7/48 55/6/47 54/5/46
s 9
f 57/1/49 58/2/50 59/3/51 60/4/51
f 61/5/52 62/6/53 58/2/50 57/1/49
f 63/7/54 62/6/53 61/5/52
s 10
f 64/1/55 65/2/56 66/3/57 67/4/57
f 68/5/58 69/6/59 65/2/56 64/1/55
f 70/7/60 69/6/59 68/5/58
s 11
f 71/1/61 72/2/62 73/3/63 74/4/63
f 75/5/64 76/6/65 72/2/62 71/1/61
f 77/7/66 76/6/65 75/5/64
s 12
f 78/1/67 79/2/68 80/3/69 81/4/69
f 82/5/70 83/6/71 79/2/68 78/1/67
f 84/7/72 83/6/71 82/5/70
s 13
f 85/1/73 86/2/74 87/3/75 88/4/75
f 89/5/76 90/6/77 86/2/74 85/1/73
f 91/7/78 90/6/77 89/5/76
s 14
f 92/1/79 93/2/80 94/3/81 95/4/81
f 96/5/82 97/6/83 93/2/80 92/1/79
f 98/7/84 97/6/83 96/5/82
s 15
f 99/1/85 100/2/86 101/3/87 102/4/87
f 103/5/88 104/6/89 100/2/86 99/1/85
f 105/7/90 104/6/89 103/5/88
s 16
f 106/1/91 107/2/92 108/3/93 109/4/93
f 110/5/94 111/6/95 107/2/92 106/1/91
f 112/7/96 111/6/95 110/5/94
s 17
f 113/1/97 114/2/98 115/3/99 116/4/99
f 117/5/100 118/6/101 114/2/98 113/1/97
f 119/7/102 118/6/101 117/5/100
s 18
f 120/1/103 121/2/104 122/3/105 123/4/105
f 124/5/106 125/6/107 121/2/104 120/1/103
f 126/7/108 125/6/107 124/5/106
s 19
f 127/1/109 128/2/110 129/3/111 130/4/111
f 131/5/112 132/6/113 128/2/110 127/1/109
f 133/7/114 132/6/113 131/5/112
s 20
f 134/1/115 135/2/116 136/3/117 137/4/117
f 138/5/118 139/6/119 135/2/116 134/1/115
f 140/7/120 139/6/119 138/5/118
s 21
f 141/1/121 142/2/122 143/3/123 144/4/123
f 145/5/124 146/6/125 142/2/122 141/1/121
f 147/7/126 146/6/125 145/5/124
s 22
f 148/1/127 149/2/128 150/3/129 151/4/129
f 152/5/130 153/6/131 149/2/128 148/1/127
f 154/7/132 153/6/131 152/5/130
s 23
f 155/1/133 156/2/134 157/3/135 158/4/135
f 159/5/136 160/6/137 156/2/134 155/1/133
f 161/7/138 160/6/137 159/5/136
s 24
f 162/1/139 163/2/140 164/3/141 165/4/141
f 166/5/142 167/6/143 163/2/140 162/1/139
f 168/7/144 167/6/143 166/5/142
s 25
f 169/1/145 170/2/146 171/3/147 172/4/147
f 173/5/148 174/6/149 170/2/146 169/1/145
f 175/7/150 174/6/149 173/5/148
s 26
f 176/1/151 177/2/152 178/3/153 179/4/153
f 180/5/154 181/6/155 177/2/152 176/1/151
f 182/7/156 181/6/155 180/5/154
s 27
f 183/1/157 184/2/158 185/3/159 186/4/159
f 187/5/160 188/6/161 184/2/158 183/1/157
f 189/7/162 188/6/161 187/5/160
s 28
f 190/1/163 191/2/164 192/3/165 193/4/165
f 194/5/166 195/6/167 191/2/164 190/1/163
f 196/7/168 195/6/167 194/5/166
s 29
f 197/1/169 198/2/170 199/3/171 200/4/171
f 201/5/172 202/6/173 198/2/170 197/1/169
f 203/7/174 202/6/173 201/5/172
s 30
f 204/1/175 205/2/176 206/3/177 207/4/177
f 208/5/178 209/6/179 205/2/176 204/1/175
f 210/7/180 209/6/179 208/5/178
s 31
f 211/1/181 212/2/182 213/3/183 214/4/183
f 215/5/184 216/6/185 212/2/182 211/1/181
f 217/7/186 216/6/185 215/5/184
s 32
f 218/1/187 219/2/188 220/3/189 221/4/189
f 222/5/190 223/6/191 219/2/188 218/1/187
f 224/7/192 223/6/191 222/5/190
s 33
f 225/1/193 226/2/194 227/3/195 228/4/195
f 229/5/196 230/6/197 226/2/194 225/1/193
f 231/7/198 230/6/197 229/5/196
s 34
f 232/1/199 233/2/200 234/3/201 235/4/201
f 236/5/202 237/6/203 233/2/200 232/1/199
f 238/7/204 237/6/203 236/5/202
s 35
f 239/1/205 240/2/206 241/3/207 242/4/207
f 243/5/208 244/6/209 240/2/206 239/1/205
f 245/7/210 244/6/209 243/5/208
s 36
f 246/1/211 247/2/212 248/3/213 249/4/213
f 250/5/214 251/6/215 247/2/212 246/1/211
f 252/7/216 251/6/215 250/5/214
s 37
f 253/1/217 254/2/218 255/3/219 256/4/219
f 257/5/220 258/6/221 254/2/218 253/1/217
f 259/7/222 258/6/221 257/5/220
s 38
f 260/1/223 261/2/224 262/3/225 263/4/225
f 264/5/226 265/6/227 261/2/224 260/1/223
f 266/7/228 265/6/227 264/5/226
s 39
f 267/1/229 268/2/230 269/3/231 270/4/231
f 271/5/232 272/6/233 268/2/230 267/1/229
f 273/7/234 272/6/233 271/5/232
