# Blender v2.79 (sub 0) OBJ File: 'Luontojuttuja.blend'
# www.blender.org
o Plant_1_lod_Plane
v -0.009170 -0.025373 0.000054
v -0.398929 0.364023 0.000054
v -0.470689 0.233283 0.000054
v 0.452349 0.233283 0.000054
v 0.380589 0.364023 0.000054
v 0.135282 0.300521 0.000054
v 0.000169 0.365891 0.000054
v -0.183505 0.279976 0.000054
v -0.123100 0.250093 0.000053
v -0.182836 0.439295 0.000054
v -0.147410 0.453108 0.000054
v -0.072672 0.251960 0.000053
v -0.268007 0.596781 0.000054
v -0.230333 0.601926 0.000054
v -0.242003 0.792821 0.000054
v -0.204042 0.790634 0.000054
v -0.255458 0.916817 0.000054
v -0.227941 0.943058 0.000054
v -0.319750 0.996924 0.000054
v -0.286917 1.016103 0.000054
v -0.402793 1.053652 0.000054
v -0.263641 1.134939 0.000054
v -0.381777 1.182078 0.000054
v 0.075089 0.248488 0.000054
v 0.049154 0.261036 0.000053
v 0.131114 0.396515 0.000054
v 0.105192 0.419313 0.000054
v 0.289207 0.551608 0.000054
v 0.257138 0.563053 0.000054
v 0.339635 0.682347 0.000054
v 0.307566 0.693792 0.000054
v 0.304149 0.813087 0.000054
v 0.272080 0.824532 0.000054
v 0.422706 0.989109 0.000054
v 0.400060 1.007108 0.000054
v 0.512064 1.055459 0.000054
v 0.381674 1.123793 0.000054
v 0.487959 1.166202 0.000054
v -0.030170 0.240805 0.000053
v -0.058754 0.237194 0.000053
v -0.085537 0.451147 0.000054
v -0.111472 0.463695 0.000054
v 0.073218 0.615505 0.000054
v 0.047283 0.628053 0.000054
v 0.077160 0.763950 0.000054
v 0.050813 0.752293 0.000054
v 0.037938 0.904028 0.000054
v 0.011591 0.892371 0.000054
v 0.067462 1.001501 0.000054
v -0.070229 0.940579 0.000054
v -0.035002 1.056955 0.000054
vt 0.457609 0.388954
vt 0.468710 0.000179
vt 0.602674 0.065769
vt 0.917448 0.134062
vt 0.000177 0.129766
vt 0.285785 0.084702
vt 0.072098 0.000177
vt 0.846745 0.003806
vt 0.012578 0.595220
vt 0.212917 0.629136
vt 0.000177 0.643811
vt 0.209713 0.591486
vt 0.378080 0.591946
vt 0.563312 0.634502
vt 0.383770 0.554591
vt 0.685282 0.656545
vt 0.550553 0.670070
vt 0.788763 0.654479
vt 0.702556 0.690152
vt 0.857137 0.554591
vt 0.779715 0.617791
vt 0.973636 0.610735
vt 0.895485 0.710082
vt 0.156845 0.479936
vt 0.360367 0.520595
vt 0.364008 0.554236
vt 0.000177 0.465254
vt 0.000177 0.493885
vt 0.499148 0.509121
vt 0.502789 0.542762
vt 0.604385 0.454433
vt 0.819460 0.456258
vt 0.813161 0.484306
vt 0.911190 0.535526
vt 0.915885 0.389309
vt 0.999823 0.466033
vt 0.391257 0.863810
vt 0.212013 0.736532
vt 0.223794 0.710436
vt 0.000177 0.768781
vt 0.004518 0.797081
vt 0.514771 0.864040
vt 0.379476 0.889906
vt 0.652892 0.821381
vt 0.527047 0.889906
vt 0.698624 0.738829
vt 0.665168 0.847248
vt 0.815163 0.770755
vt 0.762777 0.874006
vt 0.166020 0.446880
vt 0.600744 0.420792
vn -0.0000 -0.0000 -1.0000
s off
f 1/1/1 7/2/1 6/3/1
f 1/1/1 6/3/1 4/4/1
f 3/5/1 8/6/1 1/1/1
f 2/7/1 8/6/1 3/5/1
f 8/6/1 7/2/1 1/1/1
f 4/4/1 6/3/1 5/8/1
f 9/9/1 11/10/1 12/11/1
f 10/12/1 14/13/1 11/10/1
f 15/14/1 14/13/1 13/15/1
f 17/16/1 16/17/1 15/14/1
f 17/16/1 20/18/1 18/19/1
f 21/20/1 20/18/1 19/21/1
f 21/20/1 23/22/1 22/23/1
f 26/24/1 29/25/1 28/26/1
f 25/27/1 26/24/1 24/28/1
f 28/26/1 31/29/1 30/30/1
f 31/29/1 32/31/1 30/30/1
f 32/31/1 35/32/1 34/33/1
f 35/32/1 36/34/1 34/33/1
f 36/34/1 37/35/1 38/36/1
f 44/37/1 41/38/1 42/39/1
f 40/40/1 41/38/1 39/41/1
f 46/42/1 43/43/1 44/37/1
f 48/44/1 45/45/1 46/42/1
f 50/46/1 47/47/1 48/44/1
f 50/46/1 51/48/1 49/49/1
f 9/9/1 10/12/1 11/10/1
f 10/12/1 13/15/1 14/13/1
f 15/14/1 16/17/1 14/13/1
f 17/16/1 18/19/1 16/17/1
f 17/16/1 19/21/1 20/18/1
f 21/20/1 22/23/1 20/18/1
f 26/24/1 27/50/1 29/25/1
f 25/27/1 27/50/1 26/24/1
f 28/26/1 29/25/1 31/29/1
f 31/29/1 33/51/1 32/31/1
f 32/31/1 33/51/1 35/32/1
f 35/32/1 37/35/1 36/34/1
f 44/37/1 43/43/1 41/38/1
f 40/40/1 42/39/1 41/38/1
f 46/42/1 45/45/1 43/43/1
f 48/44/1 47/47/1 45/45/1
f 50/46/1 49/49/1 47/47/1
