# Blender v2.79 (sub 0) OBJ File: 'kasvitassunpeliin.blend'
# www.blender.org
o Plant_1_Plane.001
v -0.089445 0.230242 -0.503888
v -0.436530 0.309917 -0.200055
v 0.004091 -0.011618 -0.049290
v -0.069335 0.005237 0.014986
v -0.363566 0.358818 -0.474158
v -0.042109 -0.019295 -0.020420
v 0.009029 0.097443 -0.321852
v -0.304638 0.169447 -0.047272
v -0.222055 0.146403 -0.249942
v -0.411672 0.349499 -0.356648
v -0.230110 0.307821 -0.515584
v -0.302951 0.236728 -0.366290
v -0.012963 1.021646 0.488493
v 0.017109 0.925727 0.476082
v 0.073632 1.004879 0.559181
v 0.058497 0.917713 0.509868
v -0.031846 1.059266 0.611132
v 0.007585 0.940898 0.624915
v 0.026929 0.887133 0.541285
v -0.079010 0.957665 0.554227
v -0.014459 0.895147 0.507500
v -0.331462 1.069015 -0.316943
v -0.306542 1.004907 -0.242594
v -0.267644 1.126772 -0.243676
v -0.276040 1.032512 -0.207576
v -0.378553 1.183686 -0.278927
v -0.353098 1.127338 -0.169690
v -0.316883 1.032782 -0.172214
v -0.416915 1.069581 -0.242957
v -0.347384 1.005177 -0.207232
v 0.431883 1.053566 -0.202533
v 0.411265 0.998127 -0.120313
v 0.524552 1.054914 -0.137824
v 0.455557 0.998771 -0.089385
v 0.483641 1.170321 -0.180135
v 0.472279 1.123112 -0.064385
v 0.430573 1.031366 -0.054285
v 0.379610 1.121764 -0.129094
v 0.386281 1.030722 -0.085213
v -0.457923 0.297284 0.081496
v -0.197991 0.121712 0.428973
v -0.057578 0.019636 -0.109661
v -0.002590 -0.017506 -0.036152
v -0.441440 0.268512 0.383917
v -0.038099 -0.016133 -0.072674
v -0.296473 0.184615 -0.065847
v -0.061568 0.025948 0.248175
v -0.250174 0.098128 0.160746
v -0.337011 0.207449 0.423609
v -0.472982 0.299291 0.241843
v -0.354807 0.166254 0.273220
v 0.294274 0.279790 0.352051
v 0.424623 0.313672 -0.096270
v -0.001191 -0.029137 0.050108
v 0.026385 -0.021969 -0.044734
v 0.500988 0.403561 0.166287
v 0.023719 -0.040925 0.002491
v 0.127123 0.120279 0.267867
v 0.244922 0.150899 -0.137290
v 0.282038 0.158727 0.079476
v 0.481569 0.376611 0.043379
v 0.413383 0.358887 0.277898
v 0.403676 0.266143 0.123130
v 0.469021 0.222792 -0.162933
v 0.095743 0.311898 -0.430989
v 0.049890 -0.037271 0.012002
v -0.029077 -0.018420 -0.044706
v 0.378244 0.364992 -0.416106
v 0.011821 -0.043310 -0.027255
v 0.315064 0.079486 -0.035533
v -0.022275 0.160013 -0.277780
v 0.193862 0.138641 -0.242363
v 0.253276 0.354760 -0.438198
v 0.448539 0.308148 -0.297977
v 0.288270 0.236637 -0.340970
v -0.237684 0.253239 0.430450
v 0.230239 0.243022 0.439063
v -0.052022 -0.033287 0.033793
v 0.046967 -0.035448 0.035615
v 0.005726 0.338202 0.591976
v -0.000883 -0.051014 0.043661
v -0.214561 0.111498 0.230839
v 0.208311 0.102265 0.238622
v 0.010148 0.118425 0.332945
v 0.116433 0.306545 0.537648
v -0.128339 0.311889 0.533143
v 0.009458 0.211929 0.472574
v -0.003991 -0.009025 -0.011694
v -0.002782 -0.020496 0.014131
v 0.024951 -0.024975 0.010843
v 0.023742 -0.013504 -0.014983
v 0.034254 0.229353 0.085558
v 0.036258 0.221016 0.112511
v 0.063410 0.214245 0.108398
v 0.061406 0.222583 0.081445
v 0.102645 0.414335 0.112694
v 0.110031 0.418077 0.139739
v 0.133247 0.402470 0.135559
v 0.125861 0.398728 0.108514
v 0.250164 0.557860 -0.039401
v 0.259830 0.565204 -0.013854
v 0.282380 0.548545 -0.017597
v 0.272714 0.541201 -0.043144
v 0.307021 0.693837 -0.068039
v 0.311854 0.687074 -0.041003
v 0.339587 0.685547 -0.046343
v 0.334755 0.692310 -0.073378
v 0.272760 0.822016 0.027203
v 0.277770 0.816716 0.054531
v 0.305326 0.813726 0.048899
v 0.300316 0.819026 0.021571
v 0.323918 0.919551 -0.008669
v 0.334001 0.927666 0.016481
v 0.356161 0.910404 0.013166
v 0.346078 0.902290 -0.011983
v 0.403394 1.006376 -0.088208
v 0.415352 1.016860 -0.064818
v 0.435517 0.997078 -0.066261
v 0.423559 0.986594 -0.089651
v -0.000119 -0.007778 -0.014449
v -0.027654 -0.011280 -0.019887
v -0.033008 -0.012278 0.007868
v -0.005474 -0.008775 0.013306
v -0.030427 0.241003 -0.012004
v -0.057950 0.237416 -0.017447
v -0.062942 0.233829 0.010161
v -0.035419 0.237416 0.015604
v -0.063416 0.429404 0.027238
v -0.090816 0.425291 0.021554
v -0.092038 0.405524 0.041747
v -0.064637 0.409636 0.047431
v -0.098416 0.460360 0.161475
v -0.126605 0.461723 0.163362
v -0.127009 0.436276 0.175703
v -0.098821 0.434913 0.173817
v -0.057234 0.520561 0.234327
v -0.079378 0.531322 0.248250
v -0.075612 0.512360 0.268896
v -0.053468 0.501599 0.254973
v 0.070436 0.626135 0.266365
v 0.045651 0.633248 0.277990
v 0.051850 0.617647 0.300753
v 0.076635 0.610534 0.289129
v 0.074928 0.767085 0.367384
v 0.047418 0.761364 0.370624
v 0.053448 0.744965 0.392866
v 0.080957 0.750686 0.389627
v 0.036210 0.912127 0.486556
v 0.009182 0.903880 0.487788
v 0.015242 0.887324 0.509905
v 0.042269 0.895571 0.508673
v 0.030702 -0.009048 -0.037782
v 0.013988 -0.014579 -0.059920
v -0.006665 -0.022577 -0.042328
v 0.010049 -0.017045 -0.020190
v -0.064375 0.249638 -0.035564
v -0.080455 0.242416 -0.057684
v -0.101399 0.235194 -0.040100
v -0.085319 0.242416 -0.017981
v -0.148415 0.457518 -0.061119
v -0.160664 0.441569 -0.081008
v -0.183365 0.438350 -0.064447
v -0.171117 0.454299 -0.044558
v -0.221123 0.569817 -0.178107
v -0.233642 0.554524 -0.198341
v -0.257800 0.554842 -0.183635
v -0.245282 0.570135 -0.163401
v -0.234936 0.688370 -0.206909
v -0.249279 0.691235 -0.231118
v -0.273527 0.692449 -0.216608
v -0.259185 0.689584 -0.192399
v -0.190853 0.832236 -0.150381
v -0.205198 0.835011 -0.174599
v -0.229549 0.832112 -0.160507
v -0.215204 0.829337 -0.136289
v -0.229234 0.937302 -0.161300
v -0.239575 0.925727 -0.184945
v -0.262203 0.916652 -0.170606
v -0.251862 0.928227 -0.146961
v -0.293080 1.019185 -0.194971
v -0.300887 1.003787 -0.217375
v -0.322424 0.993067 -0.202502
v -0.314617 1.008465 -0.180098
vn -0.6988 -0.6478 -0.3032
vn -0.5251 -0.7647 -0.3735
vn -0.6516 -0.7309 -0.2031
vn -0.2136 -0.8700 -0.4444
vn -0.4621 -0.8395 -0.2859
vn -0.3074 -0.8633 -0.4001
vn -0.5683 -0.6849 -0.4559
vn -0.3995 -0.7366 -0.5457
vn -0.6346 -0.7715 -0.0453
vn -0.5820 -0.8000 -0.1462
vn -0.3336 -0.8136 -0.4761
vn -0.4417 -0.8552 -0.2711
vn 0.0348 -0.0371 -0.9987
vn 0.9186 0.3857 0.0858
vn 0.9431 -0.2094 -0.2581
vn -0.1545 0.5937 -0.7897
vn -0.2857 0.7921 0.5393
vn 0.2583 -0.8882 0.3799
vn 0.1057 -0.4240 0.8995
vn -0.6108 -0.7202 -0.3289
vn -0.9767 -0.2139 0.0161
vn 0.1005 -0.2651 -0.9589
vn 0.9474 -0.2292 0.2234
vn 0.3108 -0.7851 -0.5356
vn -0.3548 0.8598 -0.3672
vn 0.8915 0.4501 -0.0511
vn 0.0737 -0.1217 0.9898
vn -0.1632 0.4469 0.8796
vn -0.6447 -0.7393 0.1941
vn -0.9608 -0.2746 -0.0365
vn -0.4190 -0.7940 -0.4404
vn 0.9378 -0.3282 -0.1131
vn 0.6437 -0.7456 0.1724
vn -0.2103 -0.3445 -0.9149
vn 0.3233 0.8164 -0.4784
vn 0.2871 0.5080 0.8120
vn 0.0143 -0.0420 0.9990
vn -0.9271 -0.1490 0.3439
vn -0.8709 0.4914 0.0029
vn -0.5345 -0.7969 0.2815
vn -0.6022 -0.7952 0.0713
vn -0.4488 -0.8706 0.2015
vn -0.6480 -0.7184 -0.2530
vn -0.5246 -0.8511 -0.0185
vn -0.6175 -0.7686 -0.1672
vn -0.6708 -0.7270 0.1465
vn -0.7441 -0.6675 -0.0276
vn -0.3027 -0.9378 0.1700
vn -0.3986 -0.9107 0.1081
vn -0.6840 -0.7193 -0.1215
vn -0.5107 -0.8586 -0.0437
vn 0.8063 -0.5907 -0.0306
vn 0.7050 -0.6962 0.1349
vn 0.7211 -0.6883 -0.0792
vn 0.4860 -0.7909 0.3719
vn 0.6122 -0.7838 0.1040
vn 0.5422 -0.7906 0.2845
vn 0.7779 -0.6046 0.1711
vn 0.6854 -0.6427 0.3421
vn 0.6280 -0.7526 -0.1978
vn 0.6382 -0.7655 -0.0816
vn 0.5997 -0.7297 0.3282
vn 0.5885 -0.8017 0.1042
vn 0.1556 -0.5998 -0.7848
vn 0.2640 -0.7238 -0.6375
vn 0.0697 -0.6883 -0.7220
vn 0.4027 -0.8435 -0.3554
vn 0.1935 -0.8044 -0.5616
vn 0.3390 -0.8331 -0.4369
vn 0.3336 -0.6394 -0.6927
vn 0.4588 -0.6973 -0.5506
vn -0.0800 -0.7345 -0.6738
vn 0.0304 -0.7627 -0.6460
vn 0.4066 -0.7798 -0.4759
vn 0.1837 -0.8216 -0.5395
vn 0.1832 -0.6893 0.7009
vn -0.0118 -0.7709 0.6369
vn 0.1990 -0.7780 0.5959
vn -0.3050 -0.8223 0.4804
vn -0.0141 -0.8476 0.5304
vn -0.2064 -0.8345 0.5108
vn -0.0194 -0.6872 0.7262
vn -0.2112 -0.7028 0.6793
vn 0.2830 -0.8370 0.4682
vn 0.1728 -0.8441 0.5076
vn -0.2280 -0.7789 0.5842
vn -0.0221 -0.8623 0.5059
vn -0.7274 0.3562 -0.5865
vn 0.6312 0.0508 -0.7739
vn 0.6817 0.1808 -0.7089
vn -0.6495 -0.1954 0.7348
vn -0.7760 0.3528 -0.5228
vn 0.6903 -0.3562 0.6297
vn 0.7364 -0.3529 0.5772
vn 0.4275 -0.4955 -0.7561
vn -0.6303 -0.0444 0.7750
vn -0.8273 0.3864 -0.4076
vn 0.6827 -0.2039 0.7017
vn -0.7575 0.1558 -0.6339
vn -0.3137 0.6041 0.7325
vn -0.3774 0.4781 0.7931
vn 0.8395 -0.3053 0.4493
vn -0.6665 0.2365 -0.7070
vn 0.3245 -0.6018 -0.7297
vn -0.5629 -0.1325 0.8158
vn 0.9193 -0.1684 0.3555
vn 0.5530 0.0587 -0.8311
vn 0.5778 0.1359 -0.8047
vn -0.9278 0.1801 -0.3268
vn 0.6470 -0.2219 0.7294
vn -0.8299 0.2725 -0.4868
vn -0.3053 0.6328 0.7115
vn -0.5692 -0.0640 0.8197
vn 0.7773 -0.1832 0.6018
vn -0.9155 -0.3921 -0.0904
vn 0.2915 -0.6458 -0.7057
vn -0.4681 0.1187 0.8756
vn 0.6551 -0.4042 0.6383
vn 0.8223 0.1056 -0.5592
vn 0.5880 0.0079 0.8088
vn 0.5522 0.0594 0.8316
vn -0.5376 0.0110 -0.8431
vn -0.5575 -0.0597 -0.8280
vn -0.8290 -0.1712 0.5323
vn -0.8238 -0.1054 0.5569
vn 0.7966 0.1798 -0.5771
vn 0.8077 -0.2391 0.5389
vn -0.5502 0.4741 -0.6873
vn -0.8487 -0.4876 0.2048
vn 0.6784 0.6322 -0.3743
vn 0.6236 0.6456 -0.4407
vn -0.8000 0.5629 -0.2076
vn 0.5536 -0.7682 0.3216
vn 0.5763 -0.7636 0.2910
vn -0.7046 0.7078 -0.0501
vn -0.4734 -0.1891 0.8603
vn -0.7321 -0.5859 0.3473
vn 0.4397 0.2265 -0.8691
vn 0.8236 -0.5406 0.1715
vn -0.6770 0.5973 -0.4300
vn -0.3292 -0.3047 0.8937
vn 0.5650 0.5417 -0.6223
vn 0.5419 0.1493 -0.8271
vn -0.8163 0.2863 -0.5016
vn 0.8585 -0.2481 0.4489
vn 0.6059 0.2268 -0.7625
vn -0.5069 -0.5646 0.6513
vn -0.5733 -0.2447 -0.7819
vn 0.8089 -0.5711 0.1397
vn 0.9210 0.3641 0.1386
vn -0.1023 -0.0461 0.9937
vn 0.9320 0.3415 0.1208
vn 0.1332 -0.0020 -0.9911
vn 0.1055 0.0474 -0.9933
vn -0.9336 -0.3421 -0.1066
vn -0.9282 -0.3615 -0.0877
vn 0.8359 0.5141 0.1923
vn -0.1152 0.0112 0.9933
vn 0.3120 -0.2884 -0.9052
vn -0.9023 -0.4288 0.0433
vn -0.3983 0.3440 0.8503
vn -0.2263 0.3376 0.9137
vn 0.9428 0.3308 0.0407
vn -0.8902 -0.4051 -0.2083
vn 0.9889 -0.0957 0.1135
vn 0.2070 -0.4230 -0.8821
vn 0.1478 0.0539 -0.9875
vn -0.3818 -0.0266 0.9238
vn -0.1057 -0.1413 0.9843
vn 0.4188 0.1366 -0.8977
vn -0.9852 -0.0173 -0.1706
vn -0.9378 0.1081 -0.3297
vn 0.8166 0.5154 0.2596
vn 0.9534 -0.0066 0.3017
vn 0.3715 -0.0250 -0.9281
vn -0.2452 0.0967 0.9646
vn 0.8396 -0.0153 0.5429
vn -0.8308 -0.5195 -0.1996
vn 0.6119 -0.6507 -0.4495
vn -0.2367 -0.1960 0.9516
vn 0.1119 -0.9250 -0.3631
vn -0.2660 -0.9562 0.1222
vn -0.5164 -0.8562 -0.0141
s 1
f 10//1 12//2 2//3
f 3//4 9//5 7//6
f 5//7 12//2 10//1
f 12//2 5//7 11//8
f 4//9 8//10 9//5
f 11//8 1//11 12//2
f 4//9 9//5 6//12
f 2//3 12//2 9//5
f 1//11 9//5 12//2
f 7//6 9//5 1//11
f 3//4 6//12 9//5
f 8//10 2//3 9//5
f 14//13 15//14 16//15
f 13//16 17//17 15//14
f 15//14 19//18 16//15
f 15//14 17//17 18//19
f 18//19 21//20 19//18
f 18//19 17//17 20//21
f 20//21 14//13 21//20
f 20//21 17//17 13//16
f 22//22 25//23 23//24
f 22//22 26//25 24//26
f 24//26 28//27 25//23
f 24//26 26//25 27//28
f 27//28 30//29 28//27
f 27//28 26//25 29//30
f 29//30 23//24 30//29
f 29//30 26//25 22//22
f 32//31 33//32 34//33
f 31//34 35//35 33//32
f 34//33 36//36 37//37
f 33//32 35//35 36//36
f 36//36 39//38 37//37
f 36//36 35//35 38//39
f 38//39 32//31 39//38
f 38//39 35//35 31//34
f 49//40 51//41 41//42
f 42//43 48//44 46//45
f 44//46 51//41 49//40
f 51//41 44//46 50//47
f 43//48 47//49 48//44
f 50//47 40//50 51//41
f 43//48 48//44 45//51
f 41//42 51//41 48//44
f 40//50 48//44 51//41
f 46//45 48//44 40//50
f 42//43 45//51 48//44
f 47//49 41//42 48//44
f 61//52 63//53 53//54
f 54//55 60//56 58//57
f 56//58 63//53 61//52
f 63//53 56//58 62//59
f 55//60 59//61 60//56
f 62//59 52//62 63//53
f 55//60 60//56 57//63
f 53//54 63//53 60//56
f 52//62 60//56 63//53
f 58//57 60//56 52//62
f 54//55 57//63 60//56
f 59//61 53//54 60//56
f 73//64 75//65 65//66
f 66//67 72//68 70//69
f 68//70 75//65 73//64
f 75//65 68//70 74//71
f 67//72 71//73 72//68
f 74//71 64//74 75//65
f 67//72 72//68 69//75
f 65//66 75//65 72//68
f 64//74 72//68 75//65
f 70//69 72//68 64//74
f 66//67 69//75 72//68
f 71//73 65//66 72//68
f 85//76 87//77 77//78
f 78//79 84//80 82//81
f 80//82 87//77 85//76
f 87//77 80//82 86//83
f 79//84 83//85 84//80
f 86//83 76//86 87//77
f 79//84 84//80 81//87
f 77//78 87//77 84//80
f 76//86 84//80 87//77
f 82//81 84//80 76//86
f 78//79 81//87 84//80
f 83//85 77//78 84//80
f 88//88 95//89 91//90
f 89//91 92//92 88//88
f 94//93 89//91 90//94
f 95//89 90//94 91//90
f 92//92 99//95 95//89
f 93//96 96//97 92//92
f 98//98 93//96 94//93
f 99//95 94//93 95//89
f 100//99 99//95 96//97
f 101//100 96//97 97//101
f 98//98 101//100 97//101
f 99//95 102//102 98//98
f 104//103 103//104 100//99
f 105//105 100//99 101//100
f 102//102 105//105 101//100
f 103//104 106//106 102//102
f 104//103 111//107 107//108
f 105//105 108//109 104//103
f 110//110 105//105 106//106
f 111//107 106//106 107//108
f 112//111 111//107 108//109
f 113//112 108//109 109//113
f 110//110 113//112 109//113
f 111//107 114//114 110//110
f 116//115 115//116 112//111
f 117//117 112//111 113//112
f 114//114 117//117 113//112
f 115//116 118//118 114//114
f 120//119 127//120 123//121
f 125//122 120//119 121//123
f 126//124 121//123 122//125
f 123//121 126//124 122//125
f 124//126 131//127 127//120
f 129//128 124//126 125//122
f 130//129 125//122 126//124
f 127//120 130//129 126//124
f 132//130 131//127 128//131
f 129//128 132//130 128//131
f 130//129 133//132 129//128
f 135//133 130//129 131//127
f 132//130 139//134 135//133
f 137//135 132//130 133//132
f 138//136 133//132 134//137
f 135//133 138//136 134//137
f 136//138 143//139 139//134
f 141//140 136//138 137//135
f 142//141 137//135 138//136
f 139//134 142//141 138//136
f 144//142 143//139 140//143
f 141//140 144//142 140//143
f 142//141 145//144 141//140
f 147//145 142//141 143//139
f 148//146 147//145 144//142
f 145//144 148//146 144//142
f 146//147 149//148 145//144
f 151//149 146//147 147//145
f 156//150 155//151 152//152
f 157//153 152//152 153//154
f 154//155 157//153 153//154
f 155//151 158//156 154//155
f 160//157 159//158 156//150
f 161//159 156//150 157//153
f 158//156 161//159 157//153
f 159//158 162//160 158//156
f 160//157 167//161 163//162
f 161//159 164//163 160//157
f 166//164 161//159 162//160
f 167//161 162//160 163//162
f 168//165 167//161 164//163
f 165//166 168//165 164//163
f 166//164 169//167 165//166
f 171//168 166//164 167//161
f 168//165 175//169 171//168
f 173//170 168//165 169//167
f 174//171 169//167 170//172
f 171//168 174//171 170//172
f 176//173 175//169 172//174
f 173//170 176//173 172//174
f 174//171 177//175 173//170
f 179//176 174//171 175//169
f 180//177 179//176 176//173
f 177//175 180//177 176//173
f 178//178 181//179 177//175
f 183//180 178//178 179//176
f 34//33 118//118 119//181
f 116//115 39//38 32//31
f 119//181 116//115 32//31
f 34//33 119//181 32//31
f 19//18 21//20 150//182
f 150//182 21//20 149//148
f 149//148 21//20 14//13
f 19//18 150//182 151//149
f 148//146 149//148 14//13
f 16//15 19//18 151//149
f 148//146 14//13 16//15
f 16//15 151//149 148//146
f 117//117 39//38 116//115
f 117//117 37//37 39//38
f 37//37 118//118 34//33
f 37//37 117//117 118//118
f 182//183 183//180 30//29
f 182//183 30//29 23//24
f 182//183 23//24 181//179
f 181//179 23//24 25//23
f 180//177 181//179 25//23
f 28//27 183//180 180//177
f 28//27 180//177 25//23
f 183//180 28//27 30//29
f 14//13 13//16 15//14
f 15//14 18//19 19//18
f 18//19 20//21 21//20
f 20//21 13//16 14//13
f 22//22 24//26 25//23
f 24//26 27//28 28//27
f 27//28 29//30 30//29
f 29//30 22//22 23//24
f 32//31 31//34 33//32
f 34//33 33//32 36//36
f 36//36 38//39 39//38
f 38//39 31//34 32//31
f 88//88 92//92 95//89
f 89//91 93//96 92//92
f 94//93 93//96 89//91
f 95//89 94//93 90//94
f 92//92 96//97 99//95
f 93//96 97//101 96//97
f 98//98 97//101 93//96
f 99//95 98//98 94//93
f 100//99 103//104 99//95
f 101//100 100//99 96//97
f 98//98 102//102 101//100
f 99//95 103//104 102//102
f 104//103 107//108 103//104
f 105//105 104//103 100//99
f 102//102 106//106 105//105
f 103//104 107//108 106//106
f 104//103 108//109 111//107
f 105//105 109//113 108//109
f 110//110 109//113 105//105
f 111//107 110//110 106//106
f 112//111 115//116 111//107
f 113//112 112//111 108//109
f 110//110 114//114 113//112
f 111//107 115//116 114//114
f 116//115 119//181 115//116
f 117//117 116//115 112//111
f 114//114 118//118 117//117
f 115//116 119//181 118//118
f 120//119 124//126 127//120
f 125//122 124//126 120//119
f 126//124 125//122 121//123
f 123//121 127//120 126//124
f 124//126 128//131 131//127
f 129//128 128//131 124//126
f 130//129 129//128 125//122
f 127//120 131//127 130//129
f 132//130 135//133 131//127
f 129//128 133//132 132//130
f 130//129 134//137 133//132
f 135//133 134//137 130//129
f 132//130 136//138 139//134
f 137//135 136//138 132//130
f 138//136 137//135 133//132
f 135//133 139//134 138//136
f 136//138 140//143 143//139
f 141//140 140//143 136//138
f 142//141 141//140 137//135
f 139//134 143//139 142//141
f 144//142 147//145 143//139
f 141//140 145//144 144//142
f 142//141 146//147 145//144
f 147//145 146//147 142//141
f 148//146 151//149 147//145
f 145//144 149//148 148//146
f 146//147 150//182 149//148
f 151//149 150//182 146//147
f 156//150 159//158 155//151
f 157//153 156//150 152//152
f 154//155 158//156 157//153
f 155//151 159//158 158//156
f 160//157 163//162 159//158
f 161//159 160//157 156//150
f 158//156 162//160 161//159
f 159//158 163//162 162//160
f 160//157 164//163 167//161
f 161//159 165//166 164//163
f 166//164 165//166 161//159
f 167//161 166//164 162//160
f 168//165 171//168 167//161
f 165//166 169//167 168//165
f 166//164 170//172 169//167
f 171//168 170//172 166//164
f 168//165 172//174 175//169
f 173//170 172//174 168//165
f 174//171 173//170 169//167
f 171//168 175//169 174//171
f 176//173 179//176 175//169
f 173//170 177//175 176//173
f 174//171 178//178 177//175
f 179//176 178//178 174//171
f 180//177 183//180 179//176
f 177//175 181//179 180//177
f 178//178 182//183 181//179
f 183//180 182//183 178//178
