# Blender v2.76 (sub 0) OBJ File: 'exteriors.blend'
# www.blender.org
o rock2_Cube.003
v -0.735015 -0.590766 1.203834
v -0.224145 0.708943 0.807207
v -0.266196 -0.590766 -0.673865
v -0.002352 1.080464 -0.209645
v 0.979617 -0.590766 1.550353
v 0.707213 0.152934 1.357560
v 1.000000 -0.590766 -1.000000
v 0.946508 0.514008 -0.209645
v 1.455472 0.014537 0.307400
v 1.693037 -0.590766 0.146825
vt 0.219486 0.956838
vn -0.948200 0.251700 -0.193900
vn -0.028300 0.413400 -0.910100
vn 0.821300 0.321700 0.471100
vn -0.250500 0.295200 0.922000
vn 0.000000 -1.000000 -0.000000
vn 0.446600 0.841900 0.302800
vn 0.797800 0.391000 -0.459000
s off
f 2/1/1 4/1/1 3/1/1 1/1/1
f 4/1/2 8/1/2 7/1/2 3/1/2
f 9/1/3 6/1/3 5/1/3 10/1/3
f 6/1/4 2/1/4 1/1/4 5/1/4
f 1/1/5 3/1/5 7/1/5 10/1/5 5/1/5
f 2/1/6 6/1/6 9/1/6 8/1/6 4/1/6
f 8/1/7 9/1/7 10/1/7 7/1/7
