# Blender v2.76 (sub 0) OBJ File: 'exteriors.blend'
# www.blender.org
o rock1_Cube
v -1.131034 -0.590766 1.131034
v -0.805420 0.754030 0.361224
v -1.131034 -0.590766 -1.131034
v -0.805420 0.552368 -1.007566
v 1.131034 -0.590766 1.131034
v 0.481194 1.257396 0.287064
v 1.131034 -0.590766 -1.131034
v 0.481194 1.055734 -1.081726
v -0.093765 1.365324 -0.403406
vt 0.235515 0.948823
vn -0.968200 0.249800 -0.013900
vn -0.029100 0.058400 -0.997900
vn 0.938500 0.344700 -0.019100
vn -0.044700 0.447000 0.893400
vn 0.000000 -1.000000 0.000000
vn 0.339300 0.930600 -0.137100
vn -0.709400 0.697300 -0.102700
vn -0.314500 0.862400 0.396700
vn -0.320200 0.729500 -0.604400
s off
f 2/1/1 4/1/1 3/1/1 1/1/1
f 4/1/2 8/1/2 7/1/2 3/1/2
f 8/1/3 6/1/3 5/1/3 7/1/3
f 6/1/4 2/1/4 1/1/4 5/1/4
f 1/1/5 3/1/5 7/1/5 5/1/5
f 6/1/6 8/1/6 9/1/6
f 4/1/7 2/1/7 9/1/7
f 2/1/8 6/1/8 9/1/8
f 8/1/9 4/1/9 9/1/9
