# Blender v2.79 (sub 0) OBJ File: 'Luontojuttuja.blend'
# www.blender.org
o Spruce_lod_Cone.004
v 5.935925 -5.015623 0.069361
v -6.584820 -5.015623 -0.068623
v 0.032369 29.455706 0.004301
v -2.682590 15.087721 -0.025619
v 2.635251 14.037074 0.032986
v -3.908675 6.346300 -0.039131
v 4.053506 6.271470 0.048616
v 1.219462 21.214029 0.017384
v -1.077700 21.067617 -0.007932
v -2.908317 17.034201 -0.028107
v -4.163451 14.759188 -0.041939
v 4.075862 13.423591 0.048863
v 2.658119 16.135847 0.033238
v -3.115449 11.161301 -0.030389
v 3.136621 10.030290 0.038512
v 5.956860 5.792391 0.069592
v -5.358414 6.307328 -0.055108
vt 0.981981 0.000080
vt 0.018867 0.000080
vt 0.184237 0.163606
vt 0.770231 0.166306
vt 0.288616 0.443731
vt 0.392814 0.702622
vt 0.561878 0.697341
vt 0.679994 0.481631
vt 0.251717 0.299196
vt 0.711851 0.339995
vt 0.480180 0.999920
vt 0.696607 0.551845
vt 0.788981 0.469780
vt 0.286933 0.519440
vt 0.182590 0.421601
vt 0.044156 0.146324
vt 0.876927 0.164900
vn -0.0110 -0.0000 0.9999
s off
f 2/1/1 1/2/1 7/3/1 6/4/1
f 5/5/1 8/6/1 9/7/1 4/8/1
f 7/3/1 15/9/1 14/10/1 6/4/1
f 8/6/1 3/11/1 9/7/1
f 10/12/1 11/13/1 4/8/1
f 4/8/1 9/7/1 10/12/1
f 8/6/1 5/5/1 13/14/1
f 12/15/1 13/14/1 5/5/1
f 15/9/1 7/3/1 16/16/1
f 15/9/1 5/5/1 4/8/1 14/10/1
f 6/4/1 14/10/1 17/17/1
