# Blender v2.79 (sub 0) OBJ File: 'Luontojuttuja.blend'
# www.blender.org
o Spruce_Cone.001
v 5.967426 -5.034146 0.121085
v -6.471452 -5.034146 -0.015997
v 0.004337 29.437183 -0.021931
v -2.678621 15.069196 -0.025621
v 2.639219 14.018549 0.032984
v -3.904707 6.327776 -0.039133
v 4.057475 6.252945 0.048614
v 1.223430 21.195505 0.017381
v -1.073732 21.049093 -0.007934
v -2.904349 17.015678 -0.028109
v -4.159483 14.740663 -0.041941
v 4.079831 13.405066 0.048860
v 2.662087 16.117325 0.033236
v -3.111481 11.142776 -0.030391
v 3.140589 10.011765 0.038510
v 5.960828 5.773868 0.069590
v -5.354445 6.288805 -0.055110
v -3.771235 -5.034146 -4.626940
v 4.006804 -5.034146 5.081129
v 1.677959 15.069196 2.088090
v -1.647290 14.018549 -2.062281
v 2.444631 6.327776 3.045003
v -2.534126 6.252945 -3.169175
v -0.761996 21.195505 -0.957312
v 0.674421 21.049093 0.835536
v 1.819107 17.015678 2.264262
v 2.603943 14.740663 3.243846
v -2.548105 13.405066 -3.186623
v -1.661589 16.117325 -2.080128
v 1.948626 11.142776 2.425921
v -1.960797 10.011765 -2.453581
v -3.724294 5.773868 -4.654670
v 3.351154 6.288805 4.176469
v 2.772774 -5.034146 -5.247853
v -3.030553 -5.034146 5.755141
v -1.246236 15.069196 2.371195
v 1.234789 14.018549 -2.332780
v -1.818263 6.327776 3.455747
v 1.896473 6.252945 -3.587318
v 0.574257 21.195505 -1.080423
v -0.497479 21.049093 0.951566
v -1.351549 17.015678 2.570865
v -1.937128 14.740663 3.681113
v 1.906903 13.405066 -3.607094
v 1.245458 16.117325 -2.353008
v -1.448186 11.142776 2.754087
v 1.468702 10.011765 -2.776274
v 2.784478 5.773868 -5.270958
v -2.494635 6.288805 4.738135
vt 0.481725 -3.439995
vt 0.601454 -3.786365
vt 0.588670 -3.729074
vt 0.483931 -3.493484
vt 0.706935 -4.396347
vt 0.702447 -10.109509
vt 0.587243 -8.713160
vt 0.891857 -4.637305
vt 0.907245 -10.830063
vt 1.282380 -4.409478
vt 1.273223 -10.298025
vt 0.397880 -8.796197
vt 0.273223 -10.298025
vt 0.282380 -4.409478
vt 0.400955 -3.767266
vt 0.484234 -8.219555
vt 0.387204 -3.677807
vt 0.243690 -4.558448
vt 0.937700 -4.870653
vt 1.243690 -4.558448
vt 0.743206 -4.766668
vt 0.597820 -2.018966
vt 0.733591 -2.535444
vt 0.947444 -2.223538
vt 1.227939 -2.041879
vt 0.227939 -2.041879
vt 0.380718 -1.530123
vt 0.482295 -1.836741
vt 0.796142 -0.587256
vt 0.626550 -0.153234
vt 0.969414 -0.286917
vt 1.164440 -0.130451
vt 0.164440 -0.130451
vt 0.342017 0.310115
vt 0.476962 -0.000190
vt 0.476430 -0.079348
vt 0.629715 -0.316239
vt 0.801212 -0.987188
vt 0.969631 -0.662967
vt 1.163054 -0.420311
vt 0.163054 -0.420311
vt 0.340785 0.263802
vt 0.471066 1.004098
vt 0.654695 0.849723
vt 0.832815 0.411940
vt 0.975322 0.607915
vt 1.137295 0.777519
vt 0.137295 0.777519
vt 0.312210 1.255209
vt 0.989144 2.802624
vt 1.060441 2.865682
vt 0.060441 2.865682
vt 0.116183 3.042303
vt 0.069538 3.212746
vt 1.069538 3.212746
vt 0.867838 3.142104
vt 0.927452 2.940927
vt 0.999186 6.963188
vt 1.116183 3.042303
vn -0.8746 0.4847 0.0050
vn -0.4028 0.4640 0.7889
vn -0.2004 0.8986 0.3902
vn -0.5047 0.8630 -0.0220
vn 0.3186 0.8684 0.3800
vn 0.5519 -0.1776 0.8147
vn -0.4474 -0.1641 0.8791
vn 0.5922 0.8028 -0.0699
vn 0.9775 -0.2093 -0.0250
vn 0.2686 0.8031 -0.5318
vn 0.4412 -0.2230 -0.8692
vn -0.5717 -0.2089 -0.7934
vn -0.2976 0.8074 -0.5094
vn -0.9827 -0.1776 0.0524
vn -0.4926 0.4481 -0.7460
vn 0.4050 0.4483 -0.7968
vn 0.8909 0.4503 -0.0595
vn 0.5262 0.4827 0.7000
vn -0.4183 -0.3769 0.8264
vn 0.5071 -0.3686 0.7790
vn 0.9587 -0.2835 -0.0229
vn 0.4316 -0.2833 -0.8564
vn -0.5607 -0.2835 -0.7780
vn -0.9275 -0.3682 0.0635
vn 0.4243 0.8876 0.1794
vn -0.1510 0.9454 0.2889
vn 0.4445 0.8681 -0.2207
vn 0.1975 0.9008 -0.3867
vn -0.0908 0.8715 -0.4819
vn -0.4128 0.8821 -0.2266
vn -0.7749 0.6315 -0.0280
vn -0.3788 0.5521 0.7427
vn 0.4897 0.6297 0.6030
vn 0.9142 0.4023 -0.0480
vn 0.3960 0.4851 -0.7797
vn -0.5177 0.3988 -0.7569
vn -0.9131 -0.3865 0.1293
vn -0.4181 -0.3825 0.8239
vn 0.4465 -0.3863 0.8071
vn 0.8965 -0.4416 0.0360
vn 0.4008 -0.4539 -0.7958
vn -0.5707 -0.4414 -0.6924
vn 0.9617 -0.2685 -0.0545
vn 0.4293 -0.2886 -0.8558
vn -0.5384 -0.2686 -0.7987
vn -0.9735 -0.2271 0.0264
vn -0.4437 -0.2136 0.8703
vn 0.5637 -0.2268 0.7942
vn 0.0044 -0.9999 -0.0071
s 1
f 16/1/1 48/2/2 39/3/3 7/4/4
f 23/5/5 18/6/6 34/7/7 39/3/3
f 6/8/8 2/9/9 18/6/6 23/5/5
f 2/9/9 6/8/8 38/10/10 35/11/11
f 19/12/12 35/13/11 38/14/10 22/15/13
f 1/16/14 19/12/12 22/15/13 7/4/4
f 7/4/4 39/3/3 34/7/7 1/16/14
f 16/1/1 7/4/4 22/15/13 33/17/15
f 33/17/15 22/15/13 38/14/10 49/18/16
f 17/19/17 49/20/16 38/10/10 6/8/8
f 17/19/17 6/8/8 23/5/5 32/21/18
f 32/21/18 23/5/5 39/3/3 48/2/2
f 32/21/18 48/2/2 47/22/19 31/23/20
f 17/19/17 32/21/18 31/23/20 14/24/21
f 17/19/17 14/24/21 46/25/22 49/20/16
f 33/17/15 49/18/16 46/26/22 30/27/23
f 16/1/1 33/17/15 30/27/23 15/28/24
f 16/1/1 15/28/24 47/22/19 48/2/2
f 21/29/25 31/23/20 47/22/19 37/30/26
f 4/31/27 14/24/21 31/23/20 21/29/25
f 36/32/28 46/25/22 14/24/21 4/31/27
f 30/27/23 46/26/22 36/33/28 20/34/29
f 15/28/24 30/27/23 20/34/29 5/35/30
f 5/35/30 37/30/26 47/22/19 15/28/24
f 37/30/26 5/35/30 12/36/31 44/37/32
f 28/38/33 21/29/25 37/30/26 44/37/32
f 11/39/34 4/31/27 21/29/25 28/38/33
f 36/32/28 4/31/27 11/39/34 43/40/35
f 43/41/35 27/42/36 20/34/29 36/33/28
f 27/42/36 12/36/31 5/35/30 20/34/29
f 13/43/37 45/44/38 44/37/32 12/36/31
f 29/45/39 28/38/33 44/37/32 45/44/38
f 10/46/40 11/39/34 28/38/33 29/45/39
f 11/39/34 10/46/40 42/47/41 43/40/35
f 43/41/35 42/48/41 26/49/42 27/42/36
f 27/42/36 26/49/42 13/43/37 12/36/31
f 10/46/40 9/50/43 41/51/44 42/47/41
f 26/49/42 42/48/41 41/52/44 25/53/45
f 13/43/37 26/49/42 25/53/45 8/54/46
f 13/43/37 8/55/46 40/56/47 45/44/38
f 29/45/39 45/44/38 40/56/47 24/57/48
f 10/46/40 29/45/39 24/57/48 9/50/43
f 3/58/49 24/57/48 40/56/47
f 3/58/49 9/50/43 24/57/48
f 9/50/43 3/58/49 41/51/44
f 3/58/49 8/55/46 25/59/45
f 41/51/44 3/58/49 25/59/45
f 3/58/49 40/56/47 8/55/46
