# Blender v2.76 (sub 0) OBJ File: 'exteriors.blend'
# www.blender.org
o stump_Cylinder.024
v -0.000000 0.500000 -0.282222
v 0.000000 -0.001327 -0.352111
v -0.244412 0.500000 -0.141111
v -0.304937 -0.001327 -0.176055
v -0.244411 0.500000 0.141111
v -0.304937 -0.001327 0.176055
v -0.000000 0.500000 0.282222
v 0.000000 -0.001327 0.352111
v 0.244412 0.500000 0.141111
v 0.304937 -0.001327 0.176055
v 0.244412 0.500000 -0.141111
v 0.304937 -0.001327 -0.176055
v -0.000000 0.500000 -0.188080
v -0.162882 0.500000 -0.094040
v -0.162882 0.500000 0.094040
v -0.000000 0.500000 0.188080
v 0.162882 0.500000 0.094040
v 0.162882 0.500000 -0.094040
v -0.000000 0.439846 -0.172657
v -0.149525 0.439846 -0.086328
v -0.149525 0.439846 0.086328
v -0.000000 0.439846 0.172657
v 0.149525 0.439846 0.086328
v 0.149525 0.439846 -0.086328
v 0.000000 0.166264 -0.328871
v -0.284811 0.166264 -0.164435
v -0.284810 0.166264 0.164435
v 0.000000 0.166264 0.328871
v 0.284811 0.166264 0.164435
v 0.284811 0.166264 -0.164435
v 0.401541 -0.001327 0.535824
v 0.266063 -0.001327 0.614043
v 0.266063 0.070221 0.603718
v 0.392599 0.070221 0.530662
v -0.210032 -0.001327 -0.452885
v 0.000000 -0.001327 -0.574147
v 0.000000 0.115511 -0.558140
v 0.210032 -0.001327 -0.452885
v -0.196169 0.115511 -0.444881
v 0.196170 0.115511 -0.444881
vt 0.141525 0.858475
vt 0.631272 0.757496
vn -0.123800 0.968800 -0.214500
vn -0.992900 0.119200 0.000000
vn -0.496400 0.119200 0.859800
vn 0.125300 0.968100 0.217000
vn 0.000000 -1.000000 0.000000
vn 0.992900 0.119200 0.000000
vn 0.000000 1.000000 0.000000
vn 0.976200 0.216800 -0.000000
vn -0.976200 0.216800 0.000000
vn 0.488100 0.216800 -0.845400
vn 0.488100 0.216800 0.845400
vn -0.488100 0.216800 0.845400
vn -0.488100 0.216800 -0.845400
vn 0.992800 0.120200 0.000000
vn 0.496400 0.120200 -0.859700
vn 0.496400 0.120200 0.859700
vn -0.496400 0.120200 0.859700
vn -0.992800 0.120200 0.000000
vn -0.496400 0.120200 -0.859700
vn 0.496100 0.124000 0.859300
vn 0.961200 0.098800 -0.257500
vn -0.697700 0.099600 0.709500
vn -0.496500 0.117800 -0.860000
vn 0.496500 0.117800 -0.860000
vn 0.123800 0.968800 -0.214500
vn 0.937500 0.134200 -0.321000
vn -0.937500 0.134200 -0.321000
s off
f 26/1/1 25/1/1 37/1/1 39/1/1
f 26/1/2 4/1/2 6/1/2 27/1/2
f 27/1/3 6/1/3 8/1/3 28/1/3
f 29/1/4 28/1/4 33/1/4 34/1/4
f 4/1/5 2/1/5 12/1/5 10/1/5 8/1/5 6/1/5
f 12/1/5 2/1/5 36/1/5 38/1/5
f 29/1/6 10/1/6 12/1/6 30/1/6
f 3/1/7 5/1/7 15/1/7 14/1/7
f 14/1/8 15/1/8 21/1/8 20/1/8
f 9/1/7 11/1/7 18/1/7 17/1/7
f 1/1/7 3/1/7 14/1/7 13/1/7
f 5/1/7 7/1/7 16/1/7 15/1/7
f 11/1/7 1/1/7 13/1/7 18/1/7
f 7/1/7 9/1/7 17/1/7 16/1/7
f 19/2/7 20/2/7 21/2/7 22/2/7 23/2/7 24/2/7
f 17/1/9 18/1/9 24/1/9 23/1/9
f 15/1/10 16/1/10 22/1/10 21/1/10
f 13/1/11 14/1/11 20/1/11 19/1/11
f 18/1/12 13/1/12 19/1/12 24/1/12
f 16/1/13 17/1/13 23/1/13 22/1/13
f 9/1/14 29/1/14 30/1/14 11/1/14
f 11/1/15 30/1/15 25/1/15 1/1/15
f 7/1/16 28/1/16 29/1/16 9/1/16
f 5/1/17 27/1/17 28/1/17 7/1/17
f 3/1/18 26/1/18 27/1/18 5/1/18
f 1/1/19 25/1/19 26/1/19 3/1/19
f 33/1/20 32/1/20 31/1/20 34/1/20
f 10/1/21 29/1/21 34/1/21 31/1/21
f 8/1/5 10/1/5 31/1/5 32/1/5
f 28/1/22 8/1/22 32/1/22 33/1/22
f 37/1/23 36/1/23 35/1/23 39/1/23
f 40/1/24 38/1/24 36/1/24 37/1/24
f 25/1/25 30/1/25 40/1/25 37/1/25
f 30/1/26 12/1/26 38/1/26 40/1/26
f 2/1/5 4/1/5 35/1/5 36/1/5
f 4/1/27 26/1/27 39/1/27 35/1/27
